<svg width="720" height="556" viewBox="0 0 720 556" fill="none" xmlns="http://www.w3.org/2000/svg">
<path d="M12.9316 87.4142C6.4377 43.5172 43.6396 5.54792 87.66 11.1443L278.944 35.4623C322.759 41.0325 367.089 41.2559 410.957 36.1276L630.611 10.4498C675.172 5.2404 712.163 44.4472 704.372 88.631L686.469 190.167C675.002 255.197 675.449 321.769 687.787 386.639L703.471 469.095C711.768 512.717 676.105 552.197 631.867 548.364L394.013 527.755C361.345 524.924 328.487 525.048 295.84 528.124L86.0718 547.89C42.4771 551.997 6.72323 513.868 13.6234 470.627L29.4783 371.27C38.2298 316.428 38.5474 260.57 30.4201 205.632L12.9316 87.4142Z" fill="#5438FF" style="fill:#5438FF;fill:color(display-p3 0.3294 0.2196 1.0000);fill-opacity:1;"/>
<path d="M84.4 242V155.6H135.58V168.14H96.94V192.5H128.38V205.1H96.94V242H84.4ZM146.392 242V177.2H157.552V192.92L155.992 190.88C156.792 188.8 157.832 186.9 159.112 185.18C160.392 183.42 161.872 181.98 163.552 180.86C165.192 179.66 167.012 178.74 169.012 178.1C171.052 177.42 173.132 177.02 175.252 176.9C177.372 176.74 179.412 176.84 181.372 177.2V188.96C179.252 188.4 176.892 188.24 174.292 188.48C171.732 188.72 169.372 189.54 167.212 190.94C165.172 192.26 163.552 193.86 162.352 195.74C161.192 197.62 160.352 199.72 159.832 202.04C159.312 204.32 159.052 206.74 159.052 209.3V242H146.392ZM219.767 243.8C213.287 243.8 207.667 242.34 202.907 239.42C198.147 236.5 194.467 232.48 191.867 227.36C189.307 222.2 188.027 216.26 188.027 209.54C188.027 202.78 189.347 196.84 191.987 191.72C194.627 186.56 198.327 182.56 203.087 179.72C207.847 176.84 213.407 175.4 219.767 175.4C226.247 175.4 231.867 176.86 236.627 179.78C241.387 182.7 245.067 186.72 247.667 191.84C250.267 196.96 251.567 202.86 251.567 209.54C251.567 216.3 250.247 222.26 247.607 227.42C245.007 232.54 241.327 236.56 236.567 239.48C231.807 242.36 226.207 243.8 219.767 243.8ZM219.767 231.98C225.967 231.98 230.587 229.9 233.627 225.74C236.707 221.54 238.247 216.14 238.247 209.54C238.247 202.78 236.687 197.38 233.567 193.34C230.487 189.26 225.887 187.22 219.767 187.22C215.567 187.22 212.107 188.18 209.387 190.1C206.667 191.98 204.647 194.6 203.327 197.96C202.007 201.28 201.347 205.14 201.347 209.54C201.347 216.34 202.907 221.78 206.027 225.86C209.147 229.94 213.727 231.98 219.767 231.98ZM310.232 242V210.14C310.232 207.62 310.012 205.04 309.572 202.4C309.172 199.72 308.372 197.24 307.172 194.96C306.012 192.68 304.352 190.84 302.192 189.44C300.072 188.04 297.292 187.34 293.852 187.34C291.612 187.34 289.492 187.72 287.492 188.48C285.492 189.2 283.732 190.38 282.212 192.02C280.732 193.66 279.552 195.82 278.672 198.5C277.832 201.18 277.412 204.44 277.412 208.28L269.612 205.34C269.612 199.46 270.712 194.28 272.912 189.8C275.112 185.28 278.272 181.76 282.392 179.24C286.512 176.72 291.492 175.46 297.332 175.46C301.812 175.46 305.572 176.18 308.612 177.62C311.652 179.06 314.112 180.96 315.992 183.32C317.912 185.64 319.372 188.18 320.372 190.94C321.372 193.7 322.052 196.4 322.412 199.04C322.772 201.68 322.952 204 322.952 206V242H310.232ZM264.692 242V177.2H275.912V195.92H277.412V242H264.692ZM375.66 242C371.58 242.8 367.58 243.14 363.66 243.02C359.74 242.9 356.24 242.14 353.16 240.74C350.08 239.34 347.76 237.14 346.2 234.14C344.8 231.46 344.04 228.74 343.92 225.98C343.84 223.18 343.8 220.02 343.8 216.5V159.2H356.4V215.9C356.4 218.5 356.42 220.76 356.46 222.68C356.54 224.6 356.96 226.22 357.72 227.54C359.16 230.02 361.44 231.44 364.56 231.8C367.72 232.12 371.42 231.98 375.66 231.38V242ZM331.38 187.28V177.2H375.66V187.28H331.38ZM415.132 243.8C408.692 243.8 403.032 242.4 398.152 239.6C393.312 236.76 389.532 232.82 386.812 227.78C384.132 222.7 382.792 216.82 382.792 210.14C382.792 203.06 384.112 196.92 386.752 191.72C389.432 186.52 393.152 182.5 397.912 179.66C402.672 176.82 408.212 175.4 414.532 175.4C421.132 175.4 426.752 176.94 431.392 180.02C436.032 183.06 439.492 187.4 441.772 193.04C444.092 198.68 445.012 205.38 444.532 213.14H431.992V208.58C431.912 201.06 430.472 195.5 427.672 191.9C424.912 188.3 420.692 186.5 415.012 186.5C408.732 186.5 404.012 188.48 400.852 192.44C397.692 196.4 396.112 202.12 396.112 209.6C396.112 216.72 397.692 222.24 400.852 226.16C404.012 230.04 408.572 231.98 414.532 231.98C418.452 231.98 421.832 231.1 424.672 229.34C427.552 227.54 429.792 224.98 431.392 221.66L443.692 225.56C441.172 231.36 437.352 235.86 432.232 239.06C427.112 242.22 421.412 243.8 415.132 243.8ZM392.032 213.14V203.36H438.292V213.14H392.032ZM501.716 242V210.14C501.716 207.62 501.496 205.04 501.056 202.4C500.656 199.72 499.856 197.24 498.656 194.96C497.496 192.68 495.836 190.84 493.676 189.44C491.556 188.04 488.776 187.34 485.336 187.34C483.096 187.34 480.976 187.72 478.976 188.48C476.976 189.2 475.216 190.38 473.696 192.02C472.216 193.66 471.036 195.82 470.156 198.5C469.316 201.18 468.896 204.44 468.896 208.28L461.096 205.34C461.096 199.46 462.196 194.28 464.396 189.8C466.596 185.28 469.756 181.76 473.876 179.24C477.996 176.72 482.976 175.46 488.816 175.46C493.296 175.46 497.056 176.18 500.096 177.62C503.136 179.06 505.596 180.96 507.476 183.32C509.396 185.64 510.856 188.18 511.856 190.94C512.856 193.7 513.536 196.4 513.896 199.04C514.256 201.68 514.436 204 514.436 206V242H501.716ZM456.176 242V177.2H467.396V195.92H468.896V242H456.176ZM554.984 243.8C548.944 243.8 543.724 242.3 539.324 239.3C534.964 236.3 531.584 232.22 529.184 227.06C526.824 221.86 525.644 216.02 525.644 209.54C525.644 203.02 526.844 197.2 529.244 192.08C531.644 186.92 535.044 182.86 539.444 179.9C543.884 176.9 549.144 175.4 555.224 175.4C561.344 175.4 566.484 176.9 570.644 179.9C574.844 182.86 578.004 186.92 580.124 192.08C582.284 197.24 583.364 203.06 583.364 209.54C583.364 216.02 582.284 221.84 580.124 227C577.964 232.16 574.784 236.26 570.584 239.3C566.384 242.3 561.184 243.8 554.984 243.8ZM556.724 232.46C560.844 232.46 564.204 231.48 566.804 229.52C569.404 227.56 571.304 224.86 572.504 221.42C573.704 217.98 574.304 214.02 574.304 209.54C574.304 205.06 573.684 201.1 572.444 197.66C571.244 194.22 569.364 191.54 566.804 189.62C564.284 187.7 561.064 186.74 557.144 186.74C552.984 186.74 549.564 187.76 546.884 189.8C544.204 191.84 542.204 194.58 540.884 198.02C539.604 201.46 538.964 205.3 538.964 209.54C538.964 213.82 539.604 217.7 540.884 221.18C542.204 224.62 544.164 227.36 546.764 229.4C549.404 231.44 552.724 232.46 556.724 232.46ZM574.304 242V195.38H572.864V155.6H585.464V242H574.304Z" fill="white" style="fill:white;fill-opacity:1;"/>
<path d="M80.4 375V288.6H107.46C108.26 288.6 109.74 288.62 111.9 288.66C114.1 288.7 116.2 288.86 118.2 289.14C124.96 289.98 130.64 292.4 135.24 296.4C139.88 300.4 143.38 305.48 145.74 311.64C148.1 317.76 149.28 324.48 149.28 331.8C149.28 339.16 148.1 345.92 145.74 352.08C143.38 358.2 139.88 363.26 135.24 367.26C130.64 371.22 124.96 373.62 118.2 374.46C116.2 374.74 114.1 374.9 111.9 374.94C109.74 374.98 108.26 375 107.46 375H80.4ZM93.24 363.06H107.46C108.82 363.06 110.44 363.02 112.32 362.94C114.2 362.86 115.86 362.7 117.3 362.46C121.7 361.62 125.26 359.72 127.98 356.76C130.74 353.76 132.76 350.08 134.04 345.72C135.32 341.36 135.96 336.72 135.96 331.8C135.96 326.72 135.3 322.02 133.98 317.7C132.66 313.34 130.62 309.7 127.86 306.78C125.14 303.82 121.62 301.94 117.3 301.14C115.86 300.86 114.18 300.7 112.26 300.66C110.38 300.58 108.78 300.54 107.46 300.54H93.24V363.06ZM191.992 376.8C185.552 376.8 179.892 375.4 175.012 372.6C170.172 369.76 166.392 365.82 163.672 360.78C160.992 355.7 159.652 349.82 159.652 343.14C159.652 336.06 160.972 329.92 163.612 324.72C166.292 319.52 170.012 315.5 174.772 312.66C179.532 309.82 185.072 308.4 191.392 308.4C197.992 308.4 203.612 309.94 208.252 313.02C212.892 316.06 216.352 320.4 218.632 326.04C220.952 331.68 221.872 338.38 221.392 346.14H208.852V341.58C208.772 334.06 207.332 328.5 204.532 324.9C201.772 321.3 197.552 319.5 191.872 319.5C185.592 319.5 180.872 321.48 177.712 325.44C174.552 329.4 172.972 335.12 172.972 342.6C172.972 349.72 174.552 355.24 177.712 359.16C180.872 363.04 185.432 364.98 191.392 364.98C195.312 364.98 198.692 364.1 201.532 362.34C204.412 360.54 206.652 357.98 208.252 354.66L220.552 358.56C218.032 364.36 214.212 368.86 209.092 372.06C203.972 375.22 198.272 376.8 191.992 376.8ZM168.892 346.14V336.36H215.152V346.14H168.892ZM250.029 375L226.509 310.2H239.169L256.389 359.28L273.609 310.2H286.269L262.749 375H250.029ZM323.476 376.8C317.036 376.8 311.376 375.4 306.496 372.6C301.656 369.76 297.876 365.82 295.156 360.78C292.476 355.7 291.136 349.82 291.136 343.14C291.136 336.06 292.456 329.92 295.096 324.72C297.776 319.52 301.496 315.5 306.256 312.66C311.016 309.82 316.556 308.4 322.876 308.4C329.476 308.4 335.096 309.94 339.736 313.02C344.376 316.06 347.836 320.4 350.116 326.04C352.436 331.68 353.356 338.38 352.876 346.14H340.336V341.58C340.256 334.06 338.816 328.5 336.016 324.9C333.256 321.3 329.036 319.5 323.356 319.5C317.076 319.5 312.356 321.48 309.196 325.44C306.036 329.4 304.456 335.12 304.456 342.6C304.456 349.72 306.036 355.24 309.196 359.16C312.356 363.04 316.916 364.98 322.876 364.98C326.796 364.98 330.176 364.1 333.016 362.34C335.896 360.54 338.136 357.98 339.736 354.66L352.036 358.56C349.516 364.36 345.696 368.86 340.576 372.06C335.456 375.22 329.756 376.8 323.476 376.8ZM300.376 346.14V336.36H346.636V346.14H300.376ZM367.538 375V286.8H380.078V375H367.538ZM426.235 376.8C419.755 376.8 414.135 375.34 409.375 372.42C404.615 369.5 400.935 365.48 398.335 360.36C395.775 355.2 394.495 349.26 394.495 342.54C394.495 335.78 395.815 329.84 398.455 324.72C401.095 319.56 404.795 315.56 409.555 312.72C414.315 309.84 419.875 308.4 426.235 308.4C432.715 308.4 438.335 309.86 443.095 312.78C447.855 315.7 451.535 319.72 454.135 324.84C456.735 329.96 458.035 335.86 458.035 342.54C458.035 349.3 456.715 355.26 454.075 360.42C451.475 365.54 447.795 369.56 443.035 372.48C438.275 375.36 432.675 376.8 426.235 376.8ZM426.235 364.98C432.435 364.98 437.055 362.9 440.095 358.74C443.175 354.54 444.715 349.14 444.715 342.54C444.715 335.78 443.155 330.38 440.035 326.34C436.955 322.26 432.355 320.22 426.235 320.22C422.035 320.22 418.575 321.18 415.855 323.1C413.135 324.98 411.115 327.6 409.795 330.96C408.475 334.28 407.815 338.14 407.815 342.54C407.815 349.34 409.375 354.78 412.495 358.86C415.615 362.94 420.195 364.98 426.235 364.98ZM501.64 376.8C495.44 376.8 490.24 375.3 486.04 372.3C481.84 369.26 478.66 365.16 476.5 360C474.34 354.84 473.26 349.02 473.26 342.54C473.26 336.06 474.32 330.24 476.44 325.08C478.6 319.92 481.76 315.86 485.92 312.9C490.12 309.9 495.28 308.4 501.4 308.4C507.48 308.4 512.72 309.9 517.12 312.9C521.56 315.86 524.98 319.92 527.38 325.08C529.78 330.2 530.98 336.02 530.98 342.54C530.98 349.02 529.78 354.86 527.38 360.06C525.02 365.22 521.64 369.3 517.24 372.3C512.88 375.3 507.68 376.8 501.64 376.8ZM471.16 403.8V310.2H482.32V356.82H483.76V403.8H471.16ZM499.9 365.46C503.9 365.46 507.2 364.44 509.8 362.4C512.44 360.36 514.4 357.62 515.68 354.18C517 350.7 517.66 346.82 517.66 342.54C517.66 338.3 517 334.46 515.68 331.02C514.4 327.58 512.42 324.84 509.74 322.8C507.06 320.76 503.64 319.74 499.48 319.74C495.56 319.74 492.32 320.7 489.76 322.62C487.24 324.54 485.36 327.22 484.12 330.66C482.92 334.1 482.32 338.06 482.32 342.54C482.32 347.02 482.92 350.98 484.12 354.42C485.32 357.86 487.22 360.56 489.82 362.52C492.42 364.48 495.78 365.46 499.9 365.46ZM572.968 376.8C566.528 376.8 560.868 375.4 555.988 372.6C551.148 369.76 547.368 365.82 544.648 360.78C541.968 355.7 540.628 349.82 540.628 343.14C540.628 336.06 541.948 329.92 544.588 324.72C547.268 319.52 550.988 315.5 555.748 312.66C560.508 309.82 566.048 308.4 572.368 308.4C578.968 308.4 584.588 309.94 589.228 313.02C593.868 316.06 597.328 320.4 599.608 326.04C601.928 331.68 602.848 338.38 602.368 346.14H589.828V341.58C589.748 334.06 588.308 328.5 585.508 324.9C582.748 321.3 578.528 319.5 572.848 319.5C566.568 319.5 561.848 321.48 558.688 325.44C555.528 329.4 553.948 335.12 553.948 342.6C553.948 349.72 555.528 355.24 558.688 359.16C561.848 363.04 566.408 364.98 572.368 364.98C576.288 364.98 579.668 364.1 582.508 362.34C585.388 360.54 587.628 357.98 589.228 354.66L601.528 358.56C599.008 364.36 595.188 368.86 590.068 372.06C584.948 375.22 579.248 376.8 572.968 376.8ZM549.868 346.14V336.36H596.128V346.14H549.868ZM615.83 375V310.2H626.99V325.92L625.43 323.88C626.23 321.8 627.27 319.9 628.55 318.18C629.83 316.42 631.31 314.98 632.99 313.86C634.63 312.66 636.45 311.74 638.45 311.1C640.49 310.42 642.57 310.02 644.69 309.9C646.81 309.74 648.85 309.84 650.81 310.2V321.96C648.69 321.4 646.33 321.24 643.73 321.48C641.17 321.72 638.81 322.54 636.65 323.94C634.61 325.26 632.99 326.86 631.79 328.74C630.63 330.62 629.79 332.72 629.27 335.04C628.75 337.32 628.49 339.74 628.49 342.3V375H615.83Z" fill="white" style="fill:white;fill-opacity:1;"/>
</svg>
