<svg xmlns="http://www.w3.org/2000/svg" width="266" height="88" fill="none"><rect width="266" height="88" fill="#3FB" rx="44"/><path fill="#000" d="M49.743 62.48c-2.784 0-5.184-.528-7.2-1.584-2.016-1.088-3.584-2.608-4.704-4.56-1.088-1.984-1.632-4.32-1.632-7.008V26.48h4.704v22.848c0 2.464.72 4.528 2.16 6.192 1.472 1.664 3.696 2.496 6.672 2.496 3.008 0 5.232-.832 6.672-2.496 1.472-1.664 2.208-3.728 2.208-6.192V26.48h4.704v22.848c0 2.688-.56 5.024-1.68 7.008-1.088 1.952-2.64 3.472-4.656 4.56-2.016 1.056-4.432 1.584-7.248 1.584zM68.988 62V26.48h4.704V62h-4.704zm19.438 0V26.48h11.52c2.848 0 5.328.512 7.44 1.536 2.112.992 3.872 2.336 5.28 4.032a17.55 17.55 0 0 1 3.168 5.712 20.363 20.363 0 0 1 1.056 6.48c0 2.208-.352 4.368-1.056 6.48a17.55 17.55 0 0 1-3.168 5.712c-1.408 1.696-3.168 3.056-5.28 4.08-2.112.992-4.592 1.488-7.44 1.488h-11.52zm11.328-31.392H93.13v27.264h6.624c2.08 0 3.888-.384 5.424-1.152 1.568-.768 2.864-1.792 3.888-3.072a13.35 13.35 0 0 0 2.352-4.416 16.583 16.583 0 0 0 0-9.984 12.822 12.822 0 0 0-2.352-4.368c-1.024-1.312-2.32-2.352-3.888-3.12-1.536-.768-3.344-1.152-5.424-1.152zm32.682 31.872c-2.08 0-3.888-.368-5.424-1.104-1.504-.768-2.752-1.792-3.744-3.072a13.896 13.896 0 0 1-2.16-4.224 16.31 16.31 0 0 1-.72-4.8c0-1.6.224-3.184.672-4.752.48-1.568 1.2-2.992 2.16-4.272a10.621 10.621 0 0 1 3.696-3.024c1.504-.768 3.28-1.152 5.328-1.152 2.176 0 4.096.496 5.76 1.488 1.664.992 2.976 2.464 3.936 4.416.96 1.952 1.44 4.4 1.44 7.344v1.344h-18.384c.096 1.44.432 2.768 1.008 3.984a7.622 7.622 0 0 0 2.544 2.88c1.088.704 2.384 1.056 3.888 1.056 1.312 0 2.368-.208 3.168-.624.832-.448 1.488-.96 1.968-1.536.48-.576.8-1.072.96-1.488l.288-.672h4.272l-.24.864c-.16.544-.448 1.216-.864 2.016s-1.024 1.616-1.824 2.448c-.8.8-1.824 1.488-3.072 2.064-1.248.544-2.8.816-4.656.816zm-7.392-15.36h13.872c-.064-1.664-.416-3.008-1.056-4.032-.64-1.056-1.456-1.84-2.448-2.352a6.81 6.81 0 0 0-3.168-.768c-2.016 0-3.664.656-4.944 1.968-1.28 1.28-2.032 3.008-2.256 5.184zm31.87 15.36c-1.952 0-3.568-.272-4.848-.816-1.248-.544-2.24-1.216-2.976-2.016-.736-.832-1.28-1.648-1.632-2.448-.352-.832-.576-1.52-.672-2.064l-.144-.816h4.608l.144.672c.128.416.368.912.72 1.488.384.544.96 1.04 1.728 1.488.8.416 1.856.624 3.168.624 1.504 0 2.672-.352 3.504-1.056.832-.736 1.248-1.632 1.248-2.688 0-.928-.336-1.664-1.008-2.208-.64-.544-1.568-.96-2.784-1.248l-3.456-.816c-1.28-.32-2.48-.752-3.6-1.296s-2.032-1.28-2.736-2.208c-.672-.96-1.008-2.144-1.008-3.552 0-2.176.816-3.952 2.448-5.328 1.632-1.408 3.76-2.112 6.384-2.112 1.76 0 3.216.256 4.368.768 1.152.48 2.064 1.088 2.736 1.824.704.736 1.216 1.472 1.536 2.208.352.736.576 1.36.672 1.872l.144.72h-4.416l-.144-.528c-.096-.384-.32-.8-.672-1.248-.32-.48-.816-.896-1.488-1.248-.672-.384-1.568-.576-2.688-.576-1.536 0-2.656.352-3.36 1.056-.704.704-1.056 1.472-1.056 2.304 0 .8.32 1.456.96 1.968.672.48 1.536.848 2.592 1.104l3.504.816c2.176.512 3.968 1.36 5.376 2.544 1.44 1.152 2.16 2.816 2.16 4.992 0 1.408-.368 2.72-1.104 3.936-.736 1.184-1.792 2.128-3.168 2.832-1.376.704-3.056 1.056-5.04 1.056zm16.039-30.768c-.864 0-1.584-.288-2.16-.864a2.902 2.902 0 0 1-.816-2.064c0-.832.272-1.536.816-2.112.576-.576 1.296-.864 2.16-.864.832 0 1.536.288 2.112.864.576.576.864 1.28.864 2.112 0 .8-.288 1.488-.864 2.064-.576.576-1.28.864-2.112.864zM170.697 62V36.56h4.56V62h-4.56zm22.176 10.08c-2.112 0-3.872-.288-5.28-.864-1.408-.544-2.544-1.248-3.408-2.112-.832-.832-1.456-1.664-1.872-2.496-.416-.832-.688-1.536-.816-2.112l-.192-.816h4.56l.24.672c.16.448.464.96.912 1.536.48.576 1.184 1.088 2.112 1.536.928.448 2.176.672 3.744.672 1.856 0 3.312-.368 4.368-1.104 1.056-.704 1.808-1.632 2.256-2.784a9.39 9.39 0 0 0 .72-3.648v-2.928h-.24c-.32.544-.832 1.168-1.536 1.872-.672.672-1.568 1.264-2.688 1.776-1.12.48-2.496.72-4.128.72-1.92 0-3.6-.368-5.04-1.104a10.513 10.513 0 0 1-3.6-2.976 13.878 13.878 0 0 1-2.112-4.176 15.682 15.682 0 0 1-.72-4.704c0-1.6.24-3.168.72-4.704a13.878 13.878 0 0 1 2.112-4.176c.96-1.248 2.16-2.24 3.6-2.976 1.44-.736 3.12-1.104 5.04-1.104 1.632 0 3.008.256 4.128.768 1.12.48 2.016 1.056 2.688 1.728.704.672 1.216 1.296 1.536 1.872h.24V36.56h4.56v23.952c0 3.552-1.04 6.368-3.12 8.448-2.048 2.08-4.976 3.12-8.784 3.12zm-.384-13.968c1.696 0 3.104-.432 4.224-1.296a7.93 7.93 0 0 0 2.544-3.408c.576-1.376.864-2.832.864-4.368 0-1.536-.288-2.992-.864-4.368-.544-1.408-1.392-2.544-2.544-3.408-1.12-.864-2.528-1.296-4.224-1.296-1.696 0-3.12.432-4.272 1.296-1.152.864-2.016 2-2.592 3.408a11.772 11.772 0 0 0-.816 4.368c0 1.536.272 2.992.816 4.368a8.299 8.299 0 0 0 2.592 3.408c1.152.864 2.576 1.296 4.272 1.296zM209.477 62V36.56h4.56v3.696h.288c.224-.384.592-.912 1.104-1.584.544-.672 1.312-1.264 2.304-1.776.992-.544 2.24-.816 3.744-.816 1.856 0 3.44.432 4.752 1.296 1.312.832 2.304 1.968 2.976 3.408.704 1.44 1.056 3.056 1.056 4.848V62h-4.56V45.92c0-1.696-.48-3.104-1.44-4.224-.928-1.12-2.288-1.68-4.08-1.68-1.44 0-2.608.368-3.504 1.104-.896.704-1.568 1.648-2.016 2.832a10.8 10.8 0 0 0-.624 3.696V62h-4.56z"/></svg>