<svg xmlns="http://www.w3.org/2000/svg" width="180" height="180" fill="none"><path fill="#3FB" fill-rule="evenodd" d="M32.134 12.023c-5.783 6.422-8.392 16.16-13.61 35.635L6.929 90.93C1.71 110.406-.9 120.144.899 128.598a36 36 0 0 0 11.124 19.268c6.423 5.783 16.16 8.392 35.635 13.611l43.273 11.595c19.475 5.218 29.213 7.827 37.667 6.03a36 36 0 0 0 19.268-11.124c5.783-6.423 8.392-16.161 13.611-35.636l11.595-43.273c5.218-19.475 7.827-29.213 6.03-37.666a36 36 0 0 0-11.124-19.269c-6.423-5.783-16.161-8.392-35.636-13.61L89.069 6.928C69.594 1.71 59.857-.899 51.403.898a36 36 0 0 0-19.269 11.125zm74.854 31.858c-4.133-3.664-10.453-3.285-14.117.847-3.664 4.133-3.285 10.453.847 14.117l6.543 5.802-38.932-.655a10 10 0 0 0-5.022 18.742l22.706 12.604-25.966-.436a10 10 0 0 0-6.803 17.48l26.769 23.737c4.132 3.664 10.452 3.285 14.116-.847 3.665-4.132 3.285-10.453-.847-14.117l-6.543-5.802 38.932.655a10.001 10.001 0 0 0 5.022-18.741l-22.706-12.605 25.966.437a10.001 10.001 0 0 0 6.803-17.48L106.988 43.88z" clip-rule="evenodd"/></svg>