<svg xmlns="http://www.w3.org/2000/svg" width="162" height="162" fill="none"><path fill="#CAFF33" fill-rule="evenodd" d="M101.706 158.274c42.677-11.435 68.004-55.302 56.568-97.98-11.435-42.677-55.302-68.003-97.98-56.568-42.677 11.436-68.003 55.302-56.568 97.98 11.435 42.677 55.302 68.004 97.98 56.568zM68.577 34.636a8 8 0 0 1 9.798 5.657l6.576 24.542a39.863 39.863 0 0 1 5.12-15.548L96.7 37.808a8 8 0 0 1 13.857 8l-6.628 11.48c-6.627 11.478-2.694 26.157 8.785 32.784l11.479 6.627a8 8 0 0 1-8 13.857l-11.479-6.628a39.86 39.86 0 0 1-12.209-10.904l6.577 24.543a8 8 0 0 1-15.455 4.141L77.05 97.163a39.863 39.863 0 0 1-5.12 15.55l-6.63 11.479a8 8 0 0 1-13.857-8l6.628-11.479c6.627-11.479 2.694-26.157-8.785-32.785l-11.479-6.627a8 8 0 1 1 8-13.856l11.48 6.627a39.864 39.864 0 0 1 12.209 10.906L62.92 44.434a8 8 0 0 1 5.657-9.798z" clip-rule="evenodd"/></svg>