<svg width="139" height="134" viewBox="0 0 139 134" fill="none" xmlns="http://www.w3.org/2000/svg">
<ellipse cx="69.0278" cy="66.8594" rx="69.0278" ry="66.8594" fill="#FF5500" style="fill:#FF5500;fill:color(display-p3 1.0000 0.3333 0.0000);fill-opacity:1;"/>
<path d="M101 55H29.8514C26.0631 55 22.6312 57.2339 21.0978 60.6979C20.38 62.3193 20.1267 64.1081 20.366 65.8649L20.7534 68.7091C20.8542 69.4492 21.0307 70.1771 21.2801 70.8812L21.3502 71.0792C22.2274 73.5562 24.0106 75.6087 26.3407 76.8234C27.8235 77.5964 29.4709 78 31.1431 78H101V55Z" fill="black" stroke="black" style="fill:black;fill-opacity:1;stroke:black;stroke-opacity:1;"/>
<path d="M85.8418 40.6454L90.7754 44.6766C93.5087 46.9099 95.7435 49.6912 97.3358 52.8412C99.1218 56.3743 100.052 60.2778 100.052 64.2367V69.4372C100.052 73.3669 99.2463 77.2548 97.684 80.8606L97.3932 81.3946C95.7538 84.4061 93.6822 87.1614 91.2443 89.5727C89.4897 91.3082 87.557 92.854 85.4783 94.1844L85.2366 94.3391C83.0146 95.7612 80.65 96.947 78.1813 97.8772L73.605 99.6016L68.9545 101.089C67.1165 101.677 65.5514 102.906 64.5453 104.553L63.8658 105.665C62.3891 108.082 62.7018 111.187 64.631 113.261C64.8766 113.525 65.1442 113.767 65.4311 113.985L65.5891 114.106C67.1976 115.33 69.1847 115.95 71.2039 115.859L75.1347 115.683C76.2183 115.634 77.2959 115.495 78.3563 115.267L82.3006 114.419C84.6558 113.912 86.9563 113.178 89.1694 112.226C92.9768 110.589 96.4835 108.326 99.5443 105.532L100.052 105.068L105.579 99.6016L107.195 97.4984C111.098 92.4181 114.274 86.8182 116.631 80.8606L117.878 75.9294C118.623 72.9812 119 69.952 119 66.9111C119 63.9874 118.651 61.0742 117.962 58.233L117.62 56.8217C116.962 54.1115 116.074 51.4625 114.965 48.9036L114.922 48.8046C113.696 45.9741 112.211 43.2626 110.487 40.7047L109.824 39.7215C108.313 37.4784 106.61 35.3697 104.736 33.4188C101.63 30.1841 98.0768 27.4096 94.1856 25.1795L93 24.5L90.7333 23.1835C87.4899 21.2998 83.9875 19.9024 80.3383 19.0362L78.011 18.4837C76.6572 18.1623 75.2706 18 73.8792 18H69.7458C67.4235 18 65.2054 18.9639 63.621 20.6617L63.1794 21.1349C62.0155 22.3821 61.3682 24.0244 61.3682 25.7303C61.3682 27.5294 62.0879 29.2538 63.367 30.5189L64.222 31.3646C65.4544 32.5836 66.9934 33.4468 68.6761 33.8629L74.2485 35.2408C77.2235 35.9765 80.0705 37.1569 82.6932 38.7422L85.8418 40.6454Z" fill="black" stroke="black" style="fill:black;fill-opacity:1;stroke:black;stroke-opacity:1;"/>
</svg>
