<svg width="191" height="185" viewBox="0 0 191 185" fill="none" xmlns="http://www.w3.org/2000/svg">
<ellipse cx="95.5" cy="92.5" rx="95.5" ry="92.5" fill="#CAFF33" style="fill:#CAFF33;fill:color(display-p3 0.7922 1.0000 0.2000);fill-opacity:1;"/>
<path d="M94.4662 40.3927L57.0083 93.6681C55.7389 95.4734 55.3592 97.7579 55.9762 99.8768C56.8791 102.978 59.7208 105.11 62.9503 105.11H86.5C90.6421 105.11 94 108.468 94 112.61V115.305C90.8333 122.996 81.3 139.129 82.5 142.134C82.8959 143.125 83.3752 143.988 83.8698 144.719C85.2788 146.8 87.8366 147.5 90.35 147.5C92.6344 147.5 94.7717 146.373 96.0625 144.489L135.698 86.6208C136.546 85.3823 137 83.9162 137 82.415C137 77.4557 132.241 73.8835 127.479 75.268L124.5 76.1341L107.449 80.2513C105.56 80.7075 103.567 80.4 101.903 79.3954C98.7919 77.5176 97.5106 73.6552 98.8823 70.2905L100 67.5488L106.866 48.6685C107.594 46.6654 107.526 44.4592 106.676 42.5045L106.28 41.5936C105.199 39.1078 102.747 37.5 100.036 37.5C97.8193 37.5 95.7412 38.5792 94.4662 40.3927Z" fill="black" stroke="black" style="fill:black;fill-opacity:1;stroke:black;stroke-opacity:1;"/>
</svg>
